# Rhino

v 0 -10 0
v 3.9427556991577148 -9.1899223327636719 0
v 7.1405467987060547 -7.0008993148803711 0
v 9.2575769424438477 -3.781172513961792 0
v 10 0 0
v 9.1899223327636719 3.9427556991577148 0
v 7.0008993148803711 7.1405467987060547 0
v 3.781172513961792 9.2575769424438477 0
v 0 10 0
v 0 -10 0
v 3.6233620643615723 -9.1899223327636719 -1.5545322895050049
v 6.5621070861816406 -7.0008993148803711 -2.8153431415557861
v 8.5076417922973633 -3.781172513961792 -3.6500365734100342
v 9.1899223327636719 0 -3.9427556991577148
v 8.4454679489135742 3.9427556991577148 -3.6233620643615723
v 6.433772087097168 7.1405467987060547 -2.7602834701538086
v 3.4748682975769043 9.2575769424438477 -1.4908239841461182
v 0 10 0
v 0 -10 0
v 2.7602834701538086 -9.1899223327636719 -2.8153431415557861
v 4.9990248680114746 -7.0008993148803711 -5.0987410545349121
v 6.4811363220214844 -3.781172513961792 -6.6104164123535156
v 7.0008993148803711 0 -7.1405467987060547
v 6.433772087097168 3.9427556991577148 -6.5621070861816406
v 4.9012589454650879 7.1405467987060547 -4.9990248680114746
v 2.6471607685089111 9.2575769424438477 -2.6999640464782715
v 0 10 0
v 0 -10 0
v 1.4908239841461182 -9.1899223327636719 -3.6500365734100342
v 2.6999640464782715 -7.0008993148803711 -6.6104164123535156
v 3.5004496574401855 -3.781172513961792 -8.5702733993530273
v 3.781172513961792 0 -9.2575769424438477
v 3.4748682975769043 3.9427556991577148 -8.5076417922973633
v 2.6471607685089111 7.1405467987060547 -6.4811363220214844
v 1.4297266006469727 9.2575769424438477 -3.5004496574401855
v 0 10 0
v 0 -10 0
v 0 -9.1899223327636719 -3.9427556991577148
v 0 -7.0008993148803711 -7.1405467987060547
v 0 -3.781172513961792 -9.2575769424438477
v 0 0 -10
v 0 3.9427556991577148 -9.1899223327636719
v 0 7.1405467987060547 -7.0008993148803711
v 0 9.2575769424438477 -3.781172513961792
v 0 10 0
v 0 -10 0
v -1.5545322895050049 -9.1899223327636719 -3.6233620643615723
v -2.8153431415557861 -7.0008993148803711 -6.5621070861816406
v -3.6500365734100342 -3.781172513961792 -8.5076417922973633
v -3.9427556991577148 0 -9.1899223327636719
v -3.6233620643615723 3.9427556991577148 -8.4454679489135742
v -2.7602834701538086 7.1405467987060547 -6.433772087097168
v -1.4908239841461182 9.2575769424438477 -3.4748682975769043
v 0 10 0
v 0 -10 0
v -2.8153431415557861 -9.1899223327636719 -2.7602834701538086
v -5.0987410545349121 -7.0008993148803711 -4.9990248680114746
v -6.6104164123535156 -3.781172513961792 -6.4811363220214844
v -7.1405467987060547 0 -7.0008993148803711
v -6.5621070861816406 3.9427556991577148 -6.433772087097168
v -4.9990248680114746 7.1405467987060547 -4.9012589454650879
v -2.6999640464782715 9.2575769424438477 -2.6471607685089111
v 0 10 0
v 0 -10 0
v -3.6500365734100342 -9.1899223327636719 -1.4908239841461182
v -6.6104164123535156 -7.0008993148803711 -2.6999640464782715
v -8.5702733993530273 -3.781172513961792 -3.5004496574401855
v -9.2575769424438477 0 -3.781172513961792
v -8.5076417922973633 3.9427556991577148 -3.4748682975769043
v -6.4811363220214844 7.1405467987060547 -2.6471607685089111
v -3.5004496574401855 9.2575769424438477 -1.4297266006469727
v 0 10 0
v 0 -10 0
v -3.9427556991577148 -9.1899223327636719 0
v -7.1405467987060547 -7.0008993148803711 0
v -9.2575769424438477 -3.781172513961792 0
v -10 0 0
v -9.1899223327636719 3.9427556991577148 0
v -7.0008993148803711 7.1405467987060547 0
v -3.781172513961792 9.2575769424438477 0
v 0 10 0
v 0 -10 0
v -3.6233620643615723 -9.1899223327636719 1.5545322895050049
v -6.5621070861816406 -7.0008993148803711 2.8153431415557861
v -8.5076417922973633 -3.781172513961792 3.6500365734100342
v -9.1899223327636719 0 3.9427556991577148
v -8.4454679489135742 3.9427556991577148 3.6233620643615723
v -6.433772087097168 7.1405467987060547 2.7602834701538086
v -3.4748682975769043 9.2575769424438477 1.4908239841461182
v 0 10 0
v 0 -10 0
v -2.7602834701538086 -9.1899223327636719 2.8153431415557861
v -4.9990248680114746 -7.0008993148803711 5.0987410545349121
v -6.4811363220214844 -3.781172513961792 6.6104164123535156
v -7.0008993148803711 0 7.1405467987060547
v -6.433772087097168 3.9427556991577148 6.5621070861816406
v -4.9012589454650879 7.1405467987060547 4.9990248680114746
v -2.6471607685089111 9.2575769424438477 2.6999640464782715
v 0 10 0
v 0 -10 0
v -1.4908239841461182 -9.1899223327636719 3.6500365734100342
v -2.6999640464782715 -7.0008993148803711 6.6104164123535156
v -3.5004496574401855 -3.781172513961792 8.5702733993530273
v -3.781172513961792 0 9.2575769424438477
v -3.4748682975769043 3.9427556991577148 8.5076417922973633
v -2.6471607685089111 7.1405467987060547 6.4811363220214844
v -1.4297266006469727 9.2575769424438477 3.5004496574401855
v 0 10 0
v 0 -10 0
v 0 -9.1899223327636719 3.9427556991577148
v 0 -7.0008993148803711 7.1405467987060547
v 0 -3.781172513961792 9.2575769424438477
v 0 0 10
v 0 3.9427556991577148 9.1899223327636719
v 0 7.1405467987060547 7.0008993148803711
v 0 9.2575769424438477 3.781172513961792
v 0 10 0
v 0 -10 0
v 1.5545322895050049 -9.1899223327636719 3.6233620643615723
v 2.8153431415557861 -7.0008993148803711 6.5621070861816406
v 3.6500365734100342 -3.781172513961792 8.5076417922973633
v 3.9427556991577148 0 9.1899223327636719
v 3.6233620643615723 3.9427556991577148 8.4454679489135742
v 2.7602834701538086 7.1405467987060547 6.433772087097168
v 1.4908239841461182 9.2575769424438477 3.4748682975769043
v 0 10 0
v 0 -10 0
v 2.8153431415557861 -9.1899223327636719 2.7602834701538086
v 5.0987410545349121 -7.0008993148803711 4.9990248680114746
v 6.6104164123535156 -3.781172513961792 6.4811363220214844
v 7.1405467987060547 0 7.0008993148803711
v 6.5621070861816406 3.9427556991577148 6.433772087097168
v 4.9990248680114746 7.1405467987060547 4.9012589454650879
v 2.6999640464782715 9.2575769424438477 2.6471607685089111
v 0 10 0
v 0 -10 0
v 3.6500365734100342 -9.1899223327636719 1.4908239841461182
v 6.6104164123535156 -7.0008993148803711 2.6999640464782715
v 8.5702733993530273 -3.781172513961792 3.5004496574401855
v 9.2575769424438477 0 3.781172513961792
v 8.5076417922973633 3.9427556991577148 3.4748682975769043
v 6.4811363220214844 7.1405467987060547 2.6471607685089111
v 3.5004496574401855 9.2575769424438477 1.4297266006469727
v 0 10 0
v 0 -10 0
v 3.9427556991577148 -9.1899223327636719 0
v 7.1405467987060547 -7.0008993148803711 0
v 9.2575769424438477 -3.781172513961792 0
v 10 0 0
v 9.1899223327636719 3.9427556991577148 0
v 7.0008993148803711 7.1405467987060547 0
v 3.781172513961792 9.2575769424438477 0
v 0 10 0
vt 0 0
vt 0 0.12900444865226746
vt 0 0.25314322113990784
vt 0 0.37657162547111511
vt 0 0.5
vt 0 0.62900447845458984
vt 0 0.75314325094223022
vt 0 0.87657159566879272
vt 0 1
vt 0.064502224326133728 0
vt 0.064502224326133728 0.12900444865226746
vt 0.064502224326133728 0.25314322113990784
vt 0.064502224326133728 0.37657162547111511
vt 0.064502224326133728 0.5
vt 0.064502224326133728 0.62900447845458984
vt 0.064502224326133728 0.75314325094223022
vt 0.064502224326133728 0.87657159566879272
vt 0.064502224326133728 1
vt 0.12657161056995392 0
vt 0.12657161056995392 0.12900444865226746
vt 0.12657161056995392 0.25314322113990784
vt 0.12657161056995392 0.37657162547111511
vt 0.12657161056995392 0.5
vt 0.12657161056995392 0.62900447845458984
vt 0.12657161056995392 0.75314325094223022
vt 0.12657161056995392 0.87657159566879272
vt 0.12657161056995392 1
vt 0.18828581273555756 0
vt 0.18828581273555756 0.12900444865226746
vt 0.18828581273555756 0.25314322113990784
vt 0.18828581273555756 0.37657162547111511
vt 0.18828581273555756 0.5
vt 0.18828581273555756 0.62900447845458984
vt 0.18828581273555756 0.75314325094223022
vt 0.18828581273555756 0.87657159566879272
vt 0.18828581273555756 1
vt 0.25 0
vt 0.25 0.12900444865226746
vt 0.25 0.25314322113990784
vt 0.25 0.37657162547111511
vt 0.25 0.5
vt 0.25 0.62900447845458984
vt 0.25 0.75314325094223022
vt 0.25 0.87657159566879272
vt 0.25 1
vt 0.31450223922729492 0
vt 0.31450223922729492 0.12900444865226746
vt 0.31450223922729492 0.25314322113990784
vt 0.31450223922729492 0.37657162547111511
vt 0.31450223922729492 0.5
vt 0.31450223922729492 0.62900447845458984
vt 0.31450223922729492 0.75314325094223022
vt 0.31450223922729492 0.87657159566879272
vt 0.31450223922729492 1
vt 0.37657162547111511 0
vt 0.37657162547111511 0.12900444865226746
vt 0.37657162547111511 0.25314322113990784
vt 0.37657162547111511 0.37657162547111511
vt 0.37657162547111511 0.5
vt 0.37657162547111511 0.62900447845458984
vt 0.37657162547111511 0.75314325094223022
vt 0.37657162547111511 0.87657159566879272
vt 0.37657162547111511 1
vt 0.43828579783439636 0
vt 0.43828579783439636 0.12900444865226746
vt 0.43828579783439636 0.25314322113990784
vt 0.43828579783439636 0.37657162547111511
vt 0.43828579783439636 0.5
vt 0.43828579783439636 0.62900447845458984
vt 0.43828579783439636 0.75314325094223022
vt 0.43828579783439636 0.87657159566879272
vt 0.43828579783439636 1
vt 0.5 0
vt 0.5 0.12900444865226746
vt 0.5 0.25314322113990784
vt 0.5 0.37657162547111511
vt 0.5 0.5
vt 0.5 0.62900447845458984
vt 0.5 0.75314325094223022
vt 0.5 0.87657159566879272
vt 0.5 1
vt 0.56450223922729492 0
vt 0.56450223922729492 0.12900444865226746
vt 0.56450223922729492 0.25314322113990784
vt 0.56450223922729492 0.37657162547111511
vt 0.56450223922729492 0.5
vt 0.56450223922729492 0.62900447845458984
vt 0.56450223922729492 0.75314325094223022
vt 0.56450223922729492 0.87657159566879272
vt 0.56450223922729492 1
vt 0.62657159566879272 0
vt 0.62657159566879272 0.12900444865226746
vt 0.62657159566879272 0.25314322113990784
vt 0.62657159566879272 0.37657162547111511
vt 0.62657159566879272 0.5
vt 0.62657159566879272 0.62900447845458984
vt 0.62657159566879272 0.75314325094223022
vt 0.62657159566879272 0.87657159566879272
vt 0.62657159566879272 1
vt 0.68828582763671875 0
vt 0.68828582763671875 0.12900444865226746
vt 0.68828582763671875 0.25314322113990784
vt 0.68828582763671875 0.37657162547111511
vt 0.68828582763671875 0.5
vt 0.68828582763671875 0.62900447845458984
vt 0.68828582763671875 0.75314325094223022
vt 0.68828582763671875 0.87657159566879272
vt 0.68828582763671875 1
vt 0.75 0
vt 0.75 0.12900444865226746
vt 0.75 0.25314322113990784
vt 0.75 0.37657162547111511
vt 0.75 0.5
vt 0.75 0.62900447845458984
vt 0.75 0.75314325094223022
vt 0.75 0.87657159566879272
vt 0.75 1
vt 0.81450223922729492 0
vt 0.81450223922729492 0.12900444865226746
vt 0.81450223922729492 0.25314322113990784
vt 0.81450223922729492 0.37657162547111511
vt 0.81450223922729492 0.5
vt 0.81450223922729492 0.62900447845458984
vt 0.81450223922729492 0.75314325094223022
vt 0.81450223922729492 0.87657159566879272
vt 0.81450223922729492 1
vt 0.87657159566879272 0
vt 0.87657159566879272 0.12900444865226746
vt 0.87657159566879272 0.25314322113990784
vt 0.87657159566879272 0.37657162547111511
vt 0.87657159566879272 0.5
vt 0.87657159566879272 0.62900447845458984
vt 0.87657159566879272 0.75314325094223022
vt 0.87657159566879272 0.87657159566879272
vt 0.87657159566879272 1
vt 0.93828582763671875 0
vt 0.93828582763671875 0.12900444865226746
vt 0.93828582763671875 0.25314322113990784
vt 0.93828582763671875 0.37657162547111511
vt 0.93828582763671875 0.5
vt 0.93828582763671875 0.62900447845458984
vt 0.93828582763671875 0.75314325094223022
vt 0.93828582763671875 0.87657159566879272
vt 0.93828582763671875 1
vt 1 0
vt 1 0.12900444865226746
vt 1 0.25314322113990784
vt 1 0.37657162547111511
vt 1 0.5
vt 1 0.62900447845458984
vt 1 0.75314325094223022
vt 1 0.87657159566879272
vt 1 1
vn 0 -1 0
vn 0.39427557587623596 -0.91899228096008301 0
vn 0.71405470371246338 -0.70008993148803711 0
vn 0.92575770616531372 -0.37811726331710815 0
vn 1 0 0
vn 0.91899228096008301 0.39427557587623596 0
vn 0.70008993148803711 0.71405470371246338 0
vn 0.37811726331710815 0.92575770616531372 0
vn 0 1 0
vn 0 -1 0
vn 0.36233618855476379 -0.91899228096008301 -0.15545323491096497
vn 0.65621072053909302 -0.70008993148803711 -0.28153431415557861
vn 0.85076415538787842 -0.37811726331710815 -0.36500364542007446
vn 0.91899228096008301 0 -0.39427557587623596
vn 0.84454679489135742 0.39427557587623596 -0.36233618855476379
vn 0.64337724447250366 0.71405470371246338 -0.27602836489677429
vn 0.34748682379722595 0.92575770616531372 -0.14908239245414734
vn 0 1 0
vn 0 -1 0
vn 0.27602836489677429 -0.91899228096008301 -0.28153431415557861
vn 0.49990248680114746 -0.70008993148803711 -0.50987410545349121
vn 0.6481136679649353 -0.37811726331710815 -0.66104161739349365
vn 0.70008993148803711 0 -0.71405470371246338
vn 0.64337724447250366 0.39427557587623596 -0.65621072053909302
vn 0.49012589454650879 0.71405470371246338 -0.49990248680114746
vn 0.26471608877182007 0.92575770616531372 -0.26999640464782715
vn 0 1 0
vn 0 -1 0
vn 0.14908239245414734 -0.91899228096008301 -0.36500364542007446
vn 0.26999640464782715 -0.70008993148803711 -0.66104161739349365
vn 0.35004496574401855 -0.37811726331710815 -0.85702735185623169
vn 0.37811726331710815 0 -0.92575770616531372
vn 0.34748682379722595 0.39427557587623596 -0.85076415538787842
vn 0.26471608877182007 0.71405470371246338 -0.6481136679649353
vn 0.1429726630449295 0.92575770616531372 -0.35004496574401855
vn 0 1 0
vn 0 -1 0
vn 0 -0.91899228096008301 -0.39427557587623596
vn 0 -0.70008993148803711 -0.71405470371246338
vn 0 -0.37811726331710815 -0.92575770616531372
vn 0 0 -1
vn 0 0.39427557587623596 -0.91899228096008301
vn 0 0.71405470371246338 -0.70008993148803711
vn 0 0.92575770616531372 -0.37811726331710815
vn 0 1 0
vn 0 -1 0
vn -0.15545323491096497 -0.91899228096008301 -0.36233618855476379
vn -0.28153431415557861 -0.70008993148803711 -0.65621072053909302
vn -0.36500364542007446 -0.37811726331710815 -0.85076415538787842
vn -0.39427557587623596 0 -0.91899228096008301
vn -0.36233618855476379 0.39427557587623596 -0.84454679489135742
vn -0.27602836489677429 0.71405470371246338 -0.64337724447250366
vn -0.14908239245414734 0.92575770616531372 -0.34748682379722595
vn 0 1 0
vn 0 -1 0
vn -0.28153431415557861 -0.91899228096008301 -0.27602836489677429
vn -0.50987410545349121 -0.70008993148803711 -0.49990248680114746
vn -0.66104161739349365 -0.37811726331710815 -0.6481136679649353
vn -0.71405470371246338 0 -0.70008993148803711
vn -0.65621072053909302 0.39427557587623596 -0.64337724447250366
vn -0.49990248680114746 0.71405470371246338 -0.49012589454650879
vn -0.26999640464782715 0.92575770616531372 -0.26471608877182007
vn 0 1 0
vn 0 -1 0
vn -0.36500364542007446 -0.91899228096008301 -0.14908239245414734
vn -0.66104161739349365 -0.70008993148803711 -0.26999640464782715
vn -0.85702735185623169 -0.37811726331710815 -0.35004496574401855
vn -0.92575770616531372 0 -0.37811726331710815
vn -0.85076415538787842 0.39427557587623596 -0.34748682379722595
vn -0.6481136679649353 0.71405470371246338 -0.26471608877182007
vn -0.35004496574401855 0.92575770616531372 -0.1429726630449295
vn 0 1 0
vn 0 -1 0
vn -0.39427557587623596 -0.91899228096008301 0
vn -0.71405470371246338 -0.70008993148803711 0
vn -0.92575770616531372 -0.37811726331710815 0
vn -1 0 0
vn -0.91899228096008301 0.39427557587623596 0
vn -0.70008993148803711 0.71405470371246338 0
vn -0.37811726331710815 0.92575770616531372 0
vn 0 1 0
vn 0 -1 0
vn -0.36233618855476379 -0.91899228096008301 0.15545323491096497
vn -0.65621072053909302 -0.70008993148803711 0.28153431415557861
vn -0.85076415538787842 -0.37811726331710815 0.36500364542007446
vn -0.91899228096008301 0 0.39427557587623596
vn -0.84454679489135742 0.39427557587623596 0.36233618855476379
vn -0.64337724447250366 0.71405470371246338 0.27602836489677429
vn -0.34748682379722595 0.92575770616531372 0.14908239245414734
vn 0 1 0
vn 0 -1 0
vn -0.27602836489677429 -0.91899228096008301 0.28153431415557861
vn -0.49990248680114746 -0.70008993148803711 0.50987410545349121
vn -0.6481136679649353 -0.37811726331710815 0.66104161739349365
vn -0.70008993148803711 0 0.71405470371246338
vn -0.64337724447250366 0.39427557587623596 0.65621072053909302
vn -0.49012589454650879 0.71405470371246338 0.49990248680114746
vn -0.26471608877182007 0.92575770616531372 0.26999640464782715
vn 0 1 0
vn 0 -1 0
vn -0.14908239245414734 -0.91899228096008301 0.36500364542007446
vn -0.26999640464782715 -0.70008993148803711 0.66104161739349365
vn -0.35004496574401855 -0.37811726331710815 0.85702735185623169
vn -0.37811726331710815 0 0.92575770616531372
vn -0.34748682379722595 0.39427557587623596 0.85076415538787842
vn -0.26471608877182007 0.71405470371246338 0.6481136679649353
vn -0.1429726630449295 0.92575770616531372 0.35004496574401855
vn 0 1 0
vn 0 -1 0
vn 0 -0.91899228096008301 0.39427557587623596
vn 0 -0.70008993148803711 0.71405470371246338
vn 0 -0.37811726331710815 0.92575770616531372
vn 0 0 1
vn 0 0.39427557587623596 0.91899228096008301
vn 0 0.71405470371246338 0.70008993148803711
vn 0 0.92575770616531372 0.37811726331710815
vn 0 1 0
vn 0 -1 0
vn 0.15545323491096497 -0.91899228096008301 0.36233618855476379
vn 0.28153431415557861 -0.70008993148803711 0.65621072053909302
vn 0.36500364542007446 -0.37811726331710815 0.85076415538787842
vn 0.39427557587623596 0 0.91899228096008301
vn 0.36233618855476379 0.39427557587623596 0.84454679489135742
vn 0.27602836489677429 0.71405470371246338 0.64337724447250366
vn 0.14908239245414734 0.92575770616531372 0.34748682379722595
vn 0 1 0
vn 0 -1 0
vn 0.28153431415557861 -0.91899228096008301 0.27602836489677429
vn 0.50987410545349121 -0.70008993148803711 0.49990248680114746
vn 0.66104161739349365 -0.37811726331710815 0.6481136679649353
vn 0.71405470371246338 0 0.70008993148803711
vn 0.65621072053909302 0.39427557587623596 0.64337724447250366
vn 0.49990248680114746 0.71405470371246338 0.49012589454650879
vn 0.26999640464782715 0.92575770616531372 0.26471608877182007
vn 0 1 0
vn 0 -1 0
vn 0.36500364542007446 -0.91899228096008301 0.14908239245414734
vn 0.66104161739349365 -0.70008993148803711 0.26999640464782715
vn 0.85702735185623169 -0.37811726331710815 0.35004496574401855
vn 0.92575770616531372 0 0.37811726331710815
vn 0.85076415538787842 0.39427557587623596 0.34748682379722595
vn 0.6481136679649353 0.71405470371246338 0.26471608877182007
vn 0.35004496574401855 0.92575770616531372 0.1429726630449295
vn 0 1 0
vn 0 -1 0
vn 0.39427557587623596 -0.91899228096008301 0
vn 0.71405470371246338 -0.70008993148803711 0
vn 0.92575770616531372 -0.37811726331710815 0
vn 1 0 0
vn 0.91899228096008301 0.39427557587623596 0
vn 0.70008993148803711 0.71405470371246338 0
vn 0.37811726331710815 0.92575770616531372 0
vn 0 1 0
f 11/11/11 2/2/2 1/1/1
f 12/12/12 3/3/3 2/2/2 11/11/11
f 13/13/13 4/4/4 3/3/3 12/12/12
f 14/14/14 5/5/5 4/4/4 13/13/13
f 15/15/15 6/6/6 5/5/5 14/14/14
f 16/16/16 7/7/7 6/6/6 15/15/15
f 17/17/17 8/8/8 7/7/7 16/16/16
f 18/18/18 8/8/8 17/17/17
f 20/20/20 11/11/11 10/10/10
f 21/21/21 12/12/12 11/11/11 20/20/20
f 22/22/22 13/13/13 12/12/12 21/21/21
f 23/23/23 14/14/14 13/13/13 22/22/22
f 24/24/24 15/15/15 14/14/14 23/23/23
f 25/25/25 16/16/16 15/15/15 24/24/24
f 26/26/26 17/17/17 16/16/16 25/25/25
f 27/27/27 17/17/17 26/26/26
f 29/29/29 20/20/20 19/19/19
f 30/30/30 21/21/21 20/20/20 29/29/29
f 31/31/31 22/22/22 21/21/21 30/30/30
f 32/32/32 23/23/23 22/22/22 31/31/31
f 33/33/33 24/24/24 23/23/23 32/32/32
f 34/34/34 25/25/25 24/24/24 33/33/33
f 35/35/35 26/26/26 25/25/25 34/34/34
f 36/36/36 26/26/26 35/35/35
f 38/38/38 29/29/29 28/28/28
f 39/39/39 30/30/30 29/29/29 38/38/38
f 40/40/40 31/31/31 30/30/30 39/39/39
f 41/41/41 32/32/32 31/31/31 40/40/40
f 42/42/42 33/33/33 32/32/32 41/41/41
f 43/43/43 34/34/34 33/33/33 42/42/42
f 44/44/44 35/35/35 34/34/34 43/43/43
f 45/45/45 35/35/35 44/44/44
f 47/47/47 38/38/38 37/37/37
f 48/48/48 39/39/39 38/38/38 47/47/47
f 49/49/49 40/40/40 39/39/39 48/48/48
f 50/50/50 41/41/41 40/40/40 49/49/49
f 51/51/51 42/42/42 41/41/41 50/50/50
f 52/52/52 43/43/43 42/42/42 51/51/51
f 53/53/53 44/44/44 43/43/43 52/52/52
f 54/54/54 44/44/44 53/53/53
f 56/56/56 47/47/47 46/46/46
f 57/57/57 48/48/48 47/47/47 56/56/56
f 58/58/58 49/49/49 48/48/48 57/57/57
f 59/59/59 50/50/50 49/49/49 58/58/58
f 60/60/60 51/51/51 50/50/50 59/59/59
f 61/61/61 52/52/52 51/51/51 60/60/60
f 62/62/62 53/53/53 52/52/52 61/61/61
f 63/63/63 53/53/53 62/62/62
f 65/65/65 56/56/56 55/55/55
f 66/66/66 57/57/57 56/56/56 65/65/65
f 67/67/67 58/58/58 57/57/57 66/66/66
f 68/68/68 59/59/59 58/58/58 67/67/67
f 69/69/69 60/60/60 59/59/59 68/68/68
f 70/70/70 61/61/61 60/60/60 69/69/69
f 71/71/71 62/62/62 61/61/61 70/70/70
f 72/72/72 62/62/62 71/71/71
f 74/74/74 65/65/65 64/64/64
f 75/75/75 66/66/66 65/65/65 74/74/74
f 76/76/76 67/67/67 66/66/66 75/75/75
f 77/77/77 68/68/68 67/67/67 76/76/76
f 78/78/78 69/69/69 68/68/68 77/77/77
f 79/79/79 70/70/70 69/69/69 78/78/78
f 80/80/80 71/71/71 70/70/70 79/79/79
f 81/81/81 71/71/71 80/80/80
f 83/83/83 74/74/74 73/73/73
f 84/84/84 75/75/75 74/74/74 83/83/83
f 85/85/85 76/76/76 75/75/75 84/84/84
f 86/86/86 77/77/77 76/76/76 85/85/85
f 87/87/87 78/78/78 77/77/77 86/86/86
f 88/88/88 79/79/79 78/78/78 87/87/87
f 89/89/89 80/80/80 79/79/79 88/88/88
f 90/90/90 80/80/80 89/89/89
f 92/92/92 83/83/83 82/82/82
f 93/93/93 84/84/84 83/83/83 92/92/92
f 94/94/94 85/85/85 84/84/84 93/93/93
f 95/95/95 86/86/86 85/85/85 94/94/94
f 96/96/96 87/87/87 86/86/86 95/95/95
f 97/97/97 88/88/88 87/87/87 96/96/96
f 98/98/98 89/89/89 88/88/88 97/97/97
f 99/99/99 89/89/89 98/98/98
f 101/101/101 92/92/92 91/91/91
f 102/102/102 93/93/93 92/92/92 101/101/101
f 103/103/103 94/94/94 93/93/93 102/102/102
f 104/104/104 95/95/95 94/94/94 103/103/103
f 105/105/105 96/96/96 95/95/95 104/104/104
f 106/106/106 97/97/97 96/96/96 105/105/105
f 107/107/107 98/98/98 97/97/97 106/106/106
f 108/108/108 98/98/98 107/107/107
f 110/110/110 101/101/101 100/100/100
f 111/111/111 102/102/102 101/101/101 110/110/110
f 112/112/112 103/103/103 102/102/102 111/111/111
f 113/113/113 104/104/104 103/103/103 112/112/112
f 114/114/114 105/105/105 104/104/104 113/113/113
f 115/115/115 106/106/106 105/105/105 114/114/114
f 116/116/116 107/107/107 106/106/106 115/115/115
f 117/117/117 107/107/107 116/116/116
f 119/119/119 110/110/110 109/109/109
f 120/120/120 111/111/111 110/110/110 119/119/119
f 121/121/121 112/112/112 111/111/111 120/120/120
f 122/122/122 113/113/113 112/112/112 121/121/121
f 123/123/123 114/114/114 113/113/113 122/122/122
f 124/124/124 115/115/115 114/114/114 123/123/123
f 125/125/125 116/116/116 115/115/115 124/124/124
f 126/126/126 116/116/116 125/125/125
f 128/128/128 119/119/119 118/118/118
f 129/129/129 120/120/120 119/119/119 128/128/128
f 130/130/130 121/121/121 120/120/120 129/129/129
f 131/131/131 122/122/122 121/121/121 130/130/130
f 132/132/132 123/123/123 122/122/122 131/131/131
f 133/133/133 124/124/124 123/123/123 132/132/132
f 134/134/134 125/125/125 124/124/124 133/133/133
f 135/135/135 125/125/125 134/134/134
f 137/137/137 128/128/128 127/127/127
f 138/138/138 129/129/129 128/128/128 137/137/137
f 139/139/139 130/130/130 129/129/129 138/138/138
f 140/140/140 131/131/131 130/130/130 139/139/139
f 141/141/141 132/132/132 131/131/131 140/140/140
f 142/142/142 133/133/133 132/132/132 141/141/141
f 143/143/143 134/134/134 133/133/133 142/142/142
f 144/144/144 134/134/134 143/143/143
f 146/146/146 137/137/137 136/136/136
f 147/147/147 138/138/138 137/137/137 146/146/146
f 148/148/148 139/139/139 138/138/138 147/147/147
f 149/149/149 140/140/140 139/139/139 148/148/148
f 150/150/150 141/141/141 140/140/140 149/149/149
f 151/151/151 142/142/142 141/141/141 150/150/150
f 152/152/152 143/143/143 142/142/142 151/151/151
f 153/153/153 143/143/143 152/152/152
